<svg xmlns="http://www.w3.org/2000/svg" stroke="#000" viewBox="0 0 100 140">
<style xmlns="http://www.w3.org/2000/svg">path:not([fill="none"]) { fill:#000000; } path{ stroke:#000000; } @media (prefers-color-scheme:dark){ path:not([fill="none"]) { fill:#ffffff; } path{ stroke:#ffffff; } }</style>
<path d="M26.4 61.2c.2 2 .7-5.9.9-7.9.2-2-.4-6.3 0-5.9.9-1.7.8-3.7 1.4-5.5.6-1.6.7-3.3 1.3-4.9.3-.6.6-1.4.9-2 .4-.8.9-.9 1.6-1.3.8-.5 1.4-1.1 2.3-1.6.9-.5 1.8-.8 2.7-1.1 1.8-.5 3.5-.9 5.4-.9.5 0 .8.2 1.2.3.5.1 1 .1 1.4.3.5.2.7.5 1.5.6 1.1.1 2.3-.2 3.3.1.6.2 1.1.6 1.8.6s1.1-.3 1.7-.4c1.4-.3 3.3-.3 4.7 0 .9.2 1.8.5 2.9.7 1 .1 1.9.2 2.9.5s2.1.3 3.2.6c2.2.6 3.7 2.2 3.9 4.4.2 1.6.1 3.3.3 4.9.1 1.3.5 2.5.6 3.8.2 2.3.2 4.7-.1 7-.1 1.1-1 6.5-1.5 7.4.9-1.4 2.4-4.1 3.2-4.7 1.3-.9 1.6-.9 1.3-2.8-.3-1.9.1-4.4-.1-6.4-.1-1.2-.1-2.4-.1-3.6 0-1 .8-3.5-.1-5.2 0-1.5.1-3.9-.1-6.1.1-2.5.4-1.4.1-3.7-.2-1.5-1.4-2.9-2.7-3.7-.8-.5-1.7-.9-2.4-1.3-.3-.2-.7-.4-1.1-.6-.7-.4-.6-.6-1-1.3-.6-1.1-1.9-1.3-2.6-2.3-.5-.6-.7-1.5-1.1-2.2-.3-.5-.7-.9-1.2-1.4-1.1-1-1.9-2-2.9-3-.9-1-2.9-2.4-2.9-3.9-.9.4-1-.8-1.6-1.3-1.2-1.1-3-.6-4.2.4-.3.2-.5.6-.9.8-.5.2-1.2 0-1.7.1-1.7.1-2.6 1-3.6 2.2-.4.5-1.1 1.4-1.9 1.2-.9-.3-2-3.4-2.8-1-.5 1.5-.1 3-1.3 4.1-.9.8-1.9 1.7-2.8 2.3-.8.5-1.1 1.2-1.7 1.9-.8 1.1-2.4.8-3.2 1.9-.6.8-.9 1.8-1.5 2.7-1 1.4-1.9 2.7-2.8 4.1-.4.5-1.2 1.7-1.2 1.6.5.2-1.6 7.1-1.3 6.2.3-1.3-.1 2.7-.2 4.1-.1 1.4-.4 2.7-.4 4.1 0 1.6.5 3.1 0 4.7s-1 2.9-.9 4.7c0 1 .2 1.1.8 1.8.3.4.4 1.1.9 1.4-.1.1 1.4.6 1.7 4.5zm45.9 15.7c-1.4 3.5-1.6 9.4-2 14.4 0-.1-.1-.2-.3-.2-1.3 4-1.2 8.2-1.7 12.3-.5 3.4-1.8 6.7-2.4 10.2-.2-.1-.4-.2-.6-.2-.8 3.5-3.2 5.7-4.6 8.9-1.2-1.2-1.9-2.8-1.4-4.6.1 0 .2 0 .3.2.7-2.7.7-6.3.7-8.6v2.1c0-1.6 1-2.8.5-4.4 0-.4 0 .4-.1.6-.3-.4.6-1.7.4-2.2-.6-.7 1.1-1.7.8-2.7 0 .1-2.3-4.3-3.7-5.1-1.1-2.2.2-.6-1.8-1.4-1.1-1.5-3-1.9-3.1-1.5-.7-.8-1 .1-1.6-.8-.4.1-2.5.7-2.9.8-2.5-1.3-2.5-.9-5.6 1.2l-.9-.9c-1.3 1-3.6.3-5.3 1-2.2.9-3.9 2.4-4.7 4.9-.1 0-.3-.2-.6-.2-.5 1.3-.8 2.6-1.2 3.9-.1 0-.2 0-.3-.2-.7 2.2-.4 5.1-.3 7.5.2.1.2-.2.5 0 .2 3.2-.1 6.1-.9 8.9-.1-2-3-3.3-3.7-5.8v.8c-.2-1.4-.6-3.2-1.7-3.7-1.2-4-.9-8.2-2.7-12.1-.1-3.5-.1-6.8-.3-10.2-.1-1.6-.1-3.4.1-5l-.1.4c.1-1.4.4-2.9.3-4.3C19 86 20 92.4 19.7 97.8c-.2 5.4.4 10.9.7 16.9 1.1.8 1.4 3.3 2.4 4.7.7 1 2.3 2.7 3.2 3.7 2.2 2.4 5.7 4.9 6.8 8.2.1 0 .7-.2.8-.3.4.6.8.9 1.3 1.2 0-.4.4-.9.4-1.5 1.1 1.4 4.5 2 5.4 0 .2 1.3 1 2.1 2.3 2.2 0-.2.1-.4.1-.6 1.1 1.2 3.7 2.8 3.7 0 .7.6 1.2.3 1.9.6.1-.5.3-.8.4-1.2 2.1 0 4.1 1.4 5.4-.9.9.8 1.6.5 2.5.8-.1-.7.2-1.5 0-2.2.4.9.8.7 1.3 1.2.1-.8.5-1.4.4-2.3 0 0 .1.1.3.4 0 .1.4-1.2.4-1.3.9 1 1 .4 1.9.9 0-1.3.4-2.9 1.1-3.4-.4-.7-.2-1.2-.4-2.1.3.2.3.5.7.6.2 0 .4-.1.3-.4 1.3.7 2.7-.2 3-1.9.3.1.3.4.6.5 2.3-5.6 1.9-12.7 3.8-18.5.4.3.9.6 1.2.9.3-2.6-1.1-5.2-.9-8 .1-2.3 1-4.2 1.3-6.3.6-4.3-.1-8.6.2-12.9.2.2.2.1.1.1zm-13.9 34.7c-.2 1.1-1.1 2-1.4 3.1-.3 1.2 0 2.9-.8 3.9-.4.4-.9.3-1.3.9-.2.3-.3 1-.3 1.4-.4 1.8-.7 2.1-2.3 1.7-1-.2-.9.1-1.9.1-.8 0-.9-.3-1.4-.8-1.1-1-.8-3.1-2-3.9-.8-.5-2.2-.1-2.4.9-.8-.4-2.2-1-2.1.4-1.2 0-1.9-1.3-2.9-1.7-.1.7-.6 1-1.3.9-.1.8.2 1.5.1 2.2-.9.2-.2.8-.5 1.4-.4.9-.4.2-1.1.7-1 .7-1.2 1.9-2 .3-.8-1.6-2.1-4.2-1.9-6.1 1 0 .6-1.3.6-2 .1-.1.2-.1.2-.1-.3-1-2.5-6.4 0-5.1-.3-.7-1-3 .4-3-.2-.7-.5-2.8.7-2.6.4-1.6.3-1.4 1.6-1.6.8-.1 1.7-.5 2.4-.9 1-.5 3.9-2.8 4.7-2l-1 .3c.7.4 3.2-.4 3.6-1.2.5.9 1.4 1.1 2 .2 2.1 1.6 4.2 2.5 6.7 3.6 1.3.5 2 .6 2.1 2 .1 1.2 0 2 .3 3.2.6.8 1.3 2.9 1.2 3.8z"/><path fill="none" d="M25.7 58.2c-1.6-3-3.6-3.6-6.9-2.5-2.8.9-4.6 4-4.6 6.9 0 2.3.3 6 2 7.5 1.3 1.2 5.5 2.9 6.8 1.3m49.9-.1c-.1.6 2.4 1 3 .7.9-.4 1.7-1.6 2.3-2.3 2.2-2.9 3.1-6.7 2.6-10.3-.2-1-.4-3.1-1.5-3.7-.6-.3-2.9-.5-3.6-.3-1.9.5-3.2 1.2-3.8 3.2"/><path stroke="none" d="M20.6 67.7c-.1-.6-.2-1.2-.2-1.8 0-.6.1-1.4.5-1.9.7-1.2 2-1.8 2.1-2.7.1-.6.1-1.1-.1-1.5-.2-.4-.7-.6-1.2-.7-.5-.1-1.1-.2-1.7-.2-.3 0-.6 0-.9.1-.3.1-.6.2-.7.5 0-.3.3-.6.6-.8.3-.2.6-.3.9-.3.6-.1 1.3-.2 1.9-.1.6.1 1.4.3 1.9 1s.4 1.5.3 2.1c-.1.8-.7 1.4-1.2 1.8-.5.4-.9.7-1.3 1.2-.3.4-.6.9-.6 1.5-.1.5-.2 1.2-.3 1.8zm17.1 38.6c.5-.5 1.2-.8 1.9-1 .7-.2 1.4-.2 2.1-.4 1.4-.3 2.8-.7 4.2-.9 1.4-.2 2.9-.1 4.3.1s2.8.6 4.1 1.2c-1.4-.1-2.8-.3-4.2-.4-1.4-.1-2.7-.1-4.1.1-1.4.2-2.8.5-4.2.6-1.4.4-2.9 0-4.1.7zm2.6 4.2c.4-.5 1.1-.6 1.7-.7.6 0 1.2.1 1.7.2s1.1.2 1.6.3c.5.1 1 .1 1.7.1-.4.4-1 .7-1.7.7-.6.1-1.2 0-1.8-.1-.6-.1-1.1-.2-1.6-.4-.5-.1-1-.2-1.6-.1zm4.2-34.2c-.8 1.2-1.1 2.6-1.8 3.9-.5.7-1 1.1-1.6 1.5-.5.5-1.2.9-1.6 1.3-.8 1.1-1.2 2.4-1.1 3.7 0 1.4.2 2.8 1.2 3.5.4.4 1.1.6 1.8.7.7.2 1.4.3 2.1.4 1.4.2 2.8.5 4.2.5.7 0 1.3-.2 1.7-.7.5-.4.8-1.1 1-1.7.3-.7.5-1.3.6-2 .1-.7.1-1.5-.5-1.9.3.1.6.5.7.8.1.4.1.7.1 1.1-.1.7-.2 1.4-.4 2.1-.2.7-.5 1.4-1.1 2-.5.6-1.4.9-2.1 1-1.5.2-3-.1-4.4-.3-.7-.1-1.4-.2-2.2-.4-.7-.2-1.5-.4-2.2-.9-.7-.5-1.1-1.3-1.3-2.1-.2-.8-.2-1.5-.2-2.2-.1-1.5.4-3.1 1.5-4.2.3-.3.6-.5.9-.7l.9-.6c.6-.4 1.2-.8 1.6-1.3.8-.9 1.2-2.4 2.2-3.5zM49 57.9c-.8-2-2.9-3.1-4.8-2.4-1.9.7-2.8 3-2.1 5 .8 2 2.9 3.1 4.8 2.4 2-.7 2.9-2.9 2.1-5zm-1.3 1.4c-.4.2-.9-.2-1.1-.8-.2-.6-.1-1.2.4-1.3.4-.2.9.2 1.1.8.2.6 0 1.2-.4 1.3zM51 52c.4-1.3 1.6-2.2 2.7-2.8.6-.3 1.2-.6 1.8-.8.6-.2 1.2-.5 1.9-.6 1.3-.3 2.7-.5 4-.4 1.3.1 2.7.3 3.9 1v.1c-1.3-.1-2.6-.1-3.9-.1-1.3.1-2.6.1-3.8.3-1.2.2-2.5.6-3.7 1.1-1.1.3-2.3 1-2.9 2.2zm10.9 8.4c-.8-2-2.9-3.1-4.8-2.4-1.9.7-2.8 3-2.1 5 .8 2 2.9 3.1 4.8 2.4 1.9-.8 2.8-3 2.1-5zm-1.3 1.9c-.5.2-1.2-.3-1.5-1.2-.3-.8-.1-1.7.4-1.9.5-.2 1.2.3 1.5 1.2.3.9.2 1.7-.4 1.9zm3.7 2.6c-.3-1.6-1.1-3.1-2.2-4.4-1.1-1.2-2.5-2.2-3.9-2.9-1.5-.7-3.1-1-4.7-.7-1.5.3-2.9 1.2-3.9 2.4l-.5.7-.3-.8c-.6-1.8-1.9-3.4-3.6-4.1-1.8-.8-3.8-.6-5.7-.1-1.9.6-3.6 1.7-4.9 3.1-1.3 1.5-2.1 3.4-2.4 5.3-.3 1.9-.2 4 .7 5.7.8 1.7 2.4 3 4.3 3.3 1.9.3 3.8-.1 5.6-.9 1.8-.8 3.4-1.9 4.5-3.4l.6-.8.3 1c.6 2.1 1.8 4 3.5 5.2.8.6 1.8 1.1 2.8 1.4 1 .2 2.1.2 3.1-.1 2.1-.6 3.9-1.9 5.2-3.7 1.4-1.7 1.9-4.1 1.5-6.2zm.1-.1c.2 1.1.2 2.3 0 3.4s-.7 2.2-1.3 3.1c-1.2 1.9-3.1 3.5-5.3 4.3-1.1.4-2.3.5-3.5.3-1.2-.2-2.3-.7-3.2-1.4-1.9-1.4-3.2-3.5-3.9-5.8l.9.2c-1.3 1.7-3.1 2.9-5 3.7-1.9.8-4 1.2-6.1.8-2.1-.4-4-1.9-4.7-3.9-.8-1.9-.9-4.1-.5-6.1s1.2-3.9 2.6-5.4c1.3-1.5 3.1-2.7 5-3.3 1.9-.7 4.1-.9 6.1-.2 2 .8 3.5 2.6 4.2 4.5l-.8-.1c1.1-1.4 2.7-2.4 4.4-2.7 1.8-.3 3.5.2 5 1s2.8 1.9 3.9 3.2c1.1 1.3 1.9 2.8 2.2 4.4zm9.5 2.5c0-.6.1-1.1.1-1.6s0-1-.3-1.3c-.2-.4-.8-.8-.9-1.6 0-.4 0-.7.2-1 .1-.3.3-.6.4-.8.3-.5.7-.9 1.2-1.3s1-.8 1.8-.7c.4 0 .7.4.8.6.1.3.2.6.2.9.1.5.1 1.1.4 1.6-.4-.4-.6-1-.8-1.5-.2-.5-.4-1-.8-.9-.3 0-.8.3-1.1.7-.4.3-.7.8-1 1.2-.3.4-.5.9-.5 1.2 0 .3.4.7.7 1.3.2.3.2.7.2 1 0 .3 0 .6-.1.9 0 .3-.2.9-.5 1.3z"/></svg>
